<?xml version="1.0" encoding="UTF-8" standalone="no"?>
<!-- Generator: Adobe Illustrator 14.0.0, SVG Export Plug-In . SVG Version: 6.00 Build 43363)  -->

<svg
   xmlns:dc="http://purl.org/dc/elements/1.1/"
   xmlns:cc="http://creativecommons.org/ns#"
   xmlns:rdf="http://www.w3.org/1999/02/22-rdf-syntax-ns#"
   xmlns:svg="http://www.w3.org/2000/svg"
   xmlns="http://www.w3.org/2000/svg"
   xmlns:xlink="http://www.w3.org/1999/xlink"
   xmlns:sodipodi="http://sodipodi.sourceforge.net/DTD/sodipodi-0.dtd"
   xmlns:inkscape="http://www.inkscape.org/namespaces/inkscape"
   version="1.1"
   id="Capa_1"
   x="0px"
   y="0px"
   width="255.12px"
   height="255.12px"
   viewBox="0 0 255.12 255.12"
   enable-background="new 0 0 255.12 255.12"
   xml:space="preserve"
   inkscape:version="0.91 r13725"
   sodipodi:docname="polvo_violeta_3.svg"
   inkscape:export-filename="/media/SATA_1TB/agal/diasDaSemana/img/polvo_violeta_3.png"
   inkscape:export-xdpi="90"
   inkscape:export-ydpi="90"><metadata
     id="metadata21"><rdf:RDF><cc:Work
         rdf:about=""><dc:format>image/svg+xml</dc:format><dc:type
           rdf:resource="http://purl.org/dc/dcmitype/StillImage" /><dc:title></dc:title></cc:Work></rdf:RDF></metadata><defs
     id="defs19"><linearGradient
       inkscape:collect="always"
       id="linearGradient4218"><stop
         style="stop-color:#e23e83;stop-opacity:1;"
         offset="0"
         id="stop4220" /><stop
         style="stop-color:#e23e83;stop-opacity:0;"
         offset="1"
         id="stop4222" /></linearGradient><linearGradient
       inkscape:collect="always"
       xlink:href="#linearGradient4218"
       id="linearGradient4228"
       x1="188.71217"
       y1="118.05351"
       x2="206.28908"
       y2="118.05351"
       gradientUnits="userSpaceOnUse" /></defs><sodipodi:namedview
     pagecolor="#ffffff"
     bordercolor="#666666"
     borderopacity="1"
     objecttolerance="10"
     gridtolerance="10"
     guidetolerance="10"
     inkscape:pageopacity="0"
     inkscape:pageshadow="2"
     inkscape:window-width="1920"
     inkscape:window-height="1031"
     id="namedview17"
     showgrid="false"
     inkscape:zoom="1.8501098"
     inkscape:cx="156.78612"
     inkscape:cy="90.205656"
     inkscape:window-x="0"
     inkscape:window-y="25"
     inkscape:window-maximized="1"
     inkscape:current-layer="Capa_1" /><rect
     x="108.205"
     y="72.753"
     fill="#FFFFFF"
     width="38.875"
     height="24.904"
     id="rect3" /><path
     fill="#8A0066"
     d="M102.435,147.77c-0.721-2.235-2.555-1.628-4.275-1.179c-1.497,1.242-0.4,5.086,1.831,5.086  C101.917,151.677,102.971,149.438,102.435,147.77 M165.281,137.419c-1.838,1.258-3.346,3.938,0.254,4.466  C170.25,142.577,167.695,135.765,165.281,137.419 M155.786,138.808c-1.166,1.6,0.726,4.775,3.054,3.033  C161.572,139.797,157.885,135.931,155.786,138.808 M59.673,150.157c-1.338,0.828-0.915,4.077,1.363,4.077  C64.439,154.196,63.896,149.104,59.673,150.157 M171.285,137.856c-0.172,1.564,2.648,3.232,4.051,1.438  C177.4,136.589,173.055,133.882,171.285,137.856 M145.102,82.157c-3.521-3.853-9.909-0.769-12.762,1.735  c-2.525,3.954-2.037,10.947,2.105,12.513C143.646,98.022,147.812,90.601,145.102,82.157 M124.038,88.353  c-0.268-1.053-1.32-4.106-2.601-3.965c-2.656,0.289-5.16,0.64-8.179,1.115c-1.279,3.162-1.566,7.416-0.123,10.53  c2.2,0.915,6.072,0.73,8.177,0.247c1.217-0.277,3.447-1.427,3.594-1.734C125.199,93.933,124.282,89.306,124.038,88.353   M105.925,175.948c-0.007,0.354,0,0.701,0.025,1.039c0.277,3.271,12.003,13.293,12.003,13.293s5.316-3.773,6.002-4.887  c0.685-1.115,2.315-3.946-2.058-7.119C119.645,176.642,113.744,174.784,105.925,175.948 M180.803,123.233  c7.697,10.895,21.145,10.113,23.199,8.348c3.564-3.062,10.844-24.432,3.609-29.006c-11.02,0.766-19.928,6.902-19.928,6.902  S184.652,115.478,180.803,123.233 M223.83,133.743l-1.1,8.871l-7.535,11.91c0,0-7.018,4.91-9.689,6.777  c-6.975,4.215-27.025,4.312-27.025,4.312l-27.258-13.111l-16.032-16.847l4.886,7.032c0,0,5.077,8.812,7.117,18.436  c2.83,13.207,12.436,21.867,16.723,23.238c4.287,1.373,28.26-8.818,32.242-9.518c-0.742,6.371-17.064,17.922-17.064,17.922  s-3.344,2.059-7.375,2.83s-13.377,1.973-13.377,1.973s-14.064-6.859-16.465-10.805c-1.373-7.719-1.801-16.551-5.744-28.898  c-3.002-8.49-7.29-10.376-9.435-12.52c-2.143-2.145-5.659-9.69-5.744-14.406c-0.085-4.717-0.688,13.463-5.746,22.895  c-2.476,4.615-4.847,8.881-6.575,12.709c10.251-0.277,16.001,2.076,19.18,3.07c3.182,0.994,8.233,13.379,8.233,13.379  s-8.49,12.348-15.436,16.205c-4.203,1.201-9.701,0.658-12.435-0.43c-2.658-1.885-10.29-11.061-12.433-14.062  c-0.796-1.113-1.981-2.465-2.811-4.31c-5.037,2.718-10.381,6.8-15.759,12.763c0,0-2.459,1.951-2.611-0.818  c-0.15-2.77-0.087-8.235,5.915-14.066c4.571-4.473,8.89-6.973,12.808-8.527c0.52-1.305,1.21-2.715,2.115-4.248  c6.774-11.491,18.865-24.354,18.952-37.217c-7.119,10.117-19.982,18.693-24.87,23.066c-15.816-2.83-26.239-6.088-26.239-6.088  l-7.547,6.346l3.858,16.808l16.121-2.915c0,0,1.458,1.457-0.942,3.771c-2.4,2.317-10.975,9.776-16.635,8.062  c-5.661-1.715-11.234-10.804-12.347-20.408c-1.118-9.604,4.8-18.352,11.23-22.982c12.263,1.029,28.214,2.059,35.416,2.402  c7.377-4.032,18.009-13.207,18.009-13.207s-18.352,7.117-21.952,7.031c-3.602-0.084-21.782-5.4-26.754-9.003  c-4.719-13.292-14.321-36.017-14.321-36.017l-5.662,2.403l-2.055,6.601l8.917,7.375c0,0,0.685,1.372-2.145,1.887  c-2.829,0.516-12.006-0.771-15.434-8.146c0.256-6.604,2.658-14.407,6.002-18.008c3.602-3.172,14.063-4.287,17.064-3.259  c3.002,1.028,8.576,13.55,12.777,22.124c4.202,8.574,9.348,17.837,11.321,19.38c1.972,1.544,24.01,4.03,32.585,1.716l2.228-3.088  c0,0-18.95,1.803-31.385-3.773c-11.748-10.033-14.406-42.445-14.406-42.445l6.347-23.669c0,0,7.74-6.13,9.004-7.032  c2.355-1.785,14.234-2.129,14.234-2.129s11.32,7.875,4.203,19.193c-6.089-4.543-9.947-8.316-9.947-8.316l-7.975,16.463  c-0.59,3.217-1.252,7.599-1.561,12.41c-0.59,9.171,0.096,19.893,4.99,27.037c8.062,4.717,23.668,6.945,27.954,5.488l-1.285-3.82  c0,0-13.464-4.115-15.864-6.344c-2.401-2.23-7.632-20.408-7.202-29.672c0,0,16.549-13.634,31.64-14.406  c15.977-0.816,24.04,1.307,31.13,4.975c6.259,6.601,4.2,32.928,1.628,35.845c-3.625,4.11-13.48,9.268-16.023,10.752l0.674,2.756  l7.717,2.143c0,0,12.607-8.402,14.494-10.977c0.17-5.316,0.598-14.92,3.771-22.38c3.791-8.911,10.033-16.292,10.033-16.292  s11.998-3.439,14.664-4.203c2.666-0.763,13.98,5.061,13.98,5.061s6.342,12.09-4.375,20.064c0,0,0.438-7.117-3.689-11.576  c-2.793-0.019-8.145-2.144-17.32,5.744c-2.742,3.346-5.4,24.7-5.4,24.7s-8.664,15.845-25.728,19.198l9.085,5.155l10.951-3.197  c0,0,0.244-0.324,0.674-0.886c-0.836-2.479-1.189-4.37-1.209-5.089c-0.064-2.336,1.242-9.39,8.641-12.582  c-0.029,2.75,0.137,5.256,0.461,7.549c3.877-4.852,8.24-10.102,11.178-13.012c5.131-3.974,24.107-4.584,34.256,4.029  c3.623,12.812-5.406,31.674-10.336,36.205c-5.18,2.199-14.301,7.405-28.203,1.889c-2.744-1.547-5.055-3.48-6.99-5.578v0.002  c-7.406,2.893-20.893,1.936-20.893,1.936l-10.327-5.375c1.138,3.318,5.416,11.058,13.01,14.935  c9.063,4.628,25.454,6.128,36.208,6.978C209.697,144.993,223.83,133.743,223.83,133.743 M117.545,87.198  c-4.94,0.971-2.401,7.678,1.933,7.057C124.319,93.56,122.584,86.208,117.545,87.198 M139.444,93.873  c-5.86,1.604-8.47-7.733-2.709-9.31C143.45,82.726,145.764,92.083,139.444,93.873"
     id="path5" /><path
     fill="#E6418D"
     d="M167.988,119.998c1.281,3.798,3.699,8.97,7.799,13.411c1.709-3.494,3.432-6.982,5.018-10.175  c-2.324-3.29-4.119-7.647-4.922-13.358C172.393,114.241,169.301,118.273,167.988,119.998 M93.285,169.747  c-1.931,4.841-1.46,8.188-0.352,10.65c4.668-2.518,9.073-3.864,12.993-4.449c0.067-2.713,1.113-5.871,2.708-9.404  c-2.343,0.062-4.756,0.315-7.145,0.842C99.035,167.925,96.276,168.561,93.285,169.747 M116.228,159.167  c-3.412,0.586-2.847,6.207,0.544,6.207C120.597,165.374,120.051,158.605,116.228,159.167 M169.02,96.769  c3.824,0,3.279-6.77-0.545-6.209C165.062,91.147,165.629,96.769,169.02,96.769 M87.678,134.458c1.952,0.287,1.564-4.287-0.912-3.17  C84.639,132.249,85.223,134.099,87.678,134.458 M166.525,151.823c-2.127,0.961-1.543,2.811,0.912,3.17  C169.391,155.28,169.004,150.706,166.525,151.823 M147.12,170.089c-2.274-1.742-4.744,3.977-0.081,4.592  C149.762,174.356,148.475,171.126,147.12,170.089 M170.59,86.96c2.309,0,2.859-4.162,0.332-4.162  c-0.943-0.012-1.826,0.226-2.133,1.074C168.482,84.722,168.688,87.024,170.59,86.96 M121.758,150.677  c1.925,0,2.98-2.238,2.444-3.907c-0.722-2.235-2.556-1.628-4.275-1.179C118.43,146.833,119.527,150.677,121.758,150.677   M148.576,177.805c-1.498,1.243-0.4,5.085,1.83,5.085c1.925,0,2.98-2.238,2.443-3.905  C152.13,176.748,150.295,177.354,148.576,177.805 M149.712,159.169c4.716,0.692,2.16-6.121-0.255-4.466  C147.621,155.96,146.113,158.64,149.712,159.169 M186.58,154.523c-1.836,1.257-3.344,3.937,0.256,4.466  C191.551,159.682,188.994,152.868,186.58,154.523 M156.984,182.97c-3.151,0.879-0.467,5.775,2.109,3.561  C160.797,185.065,158.997,182.407,156.984,182.97 M198.596,101.604c2.176-0.553,1.748-3.733-0.305-4.127  C195.074,96.862,195.301,102.442,198.596,101.604 M70.732,127.112c-1.687,0.128-3.688,3.869-1.185,4.6  C73.297,132.593,73.78,126.882,70.732,127.112 M198.824,152.639c-1.688,0.128-3.688,3.868-1.186,4.6  C201.389,158.119,201.871,152.407,198.824,152.639 M187.107,100.157c-2.145,1.548-0.723,6.23,2.119,5.531  C193.277,104.37,190.754,97.526,187.107,100.157 M189.23,63.202c-1.891,0.582-2.279,4.258,0.629,4.258  C193.271,67.46,192.637,62.156,189.23,63.202 M176.521,152.171c-4.559-0.67-4.104,6.109-0.143,6.693  C180.811,159.515,180.451,152.748,176.521,152.171 M77.93,141.743c-3.387,0.471-1.455,5.251,1.654,4.291  C81.155,144.876,80.018,141.495,77.93,141.743 M182.717,107.655c-3.078-1.486-4.125,3.561-1.004,4.488  C183.66,112.052,184.594,108.606,182.717,107.655 M113.956,169.169c-1.283,0.592-2.198,1.584-1.878,3.541  c0.167,1.02,0.993,1.934,2.053,1.934C117.686,174.644,117.363,169.386,113.956,169.169 M89.251,97.536  c-1.223,0.557-2.255,1.033-1.526,2.514c0.458,0.93,1.616,1.924,2.72,1.422C92.378,100.362,91.245,97.222,89.251,97.536   M118.445,153.307c-1.222,0.556-2.254,1.034-1.525,2.514c0.457,0.929,1.615,1.925,2.721,1.421  C121.573,156.132,120.439,152.993,118.445,153.307 M123.722,173.298c-1.344,0-2.481,0.008-2.431,1.656  c0.031,1.035,0.674,2.421,1.888,2.421C125.397,177.166,125.666,173.839,123.722,173.298 M53.722,154.636  c-3.798-2.119-5.561,4.755-1.005,4.756C55.12,159.392,55.34,155.79,53.722,154.636 M55.195,162.489  c-3.557-1.479-4.576,4.504-0.677,4.504C56.95,166.993,57.274,163.354,55.195,162.489 M59.113,96.316  c-4.807,0-4.765,7.802,0.126,7.804C64.524,104.073,64.717,96.316,59.113,96.316 M149.632,163.808  c-2.088,2.564,3.541,4.703,3.791,0.643C153.566,162.103,150.697,162.306,149.632,163.808 M76.564,130.396  c-2.088,2.564,3.541,4.703,3.791,0.644C80.5,128.691,77.63,128.894,76.564,130.396 M166.643,187.265  c-2.088,2.562,3.541,4.701,3.791,0.643C170.578,185.558,167.707,185.761,166.643,187.265 M60.549,108.502  c-2.2,1.366-0.191,3.814,1.836,3.814C66.018,112.558,64.354,106.14,60.549,108.502 M173.143,78.774c4.689,0,3.607-6.966-0.256-5.619  C170.332,74.044,170.105,78.774,173.143,78.774 M62.992,124.53c-1.339,0.829-0.915,4.076,1.362,4.076  C67.758,128.567,67.215,123.476,62.992,124.53 M85.794,77.493c-2.357,0.152-4.09,4.752-1.073,6.362  C89.255,86.206,92.13,79.079,85.794,77.493 M87.487,92.265c2.73-2.033-0.703-5.832-3.499-2.496  C83.392,91.226,85.644,93.603,87.487,92.265 M54.51,89.78c-1.339,0.829-0.915,4.077,1.362,4.077  C59.275,93.817,58.732,88.726,54.51,89.78 M112.245,188.093c-3.147-1.459-4.326,3.772-0.277,4.124  C113.894,191.835,114.031,188.921,112.245,188.093 M53.034,88.149c4.106-0.287,3.294-7.392-0.812-5.939  C49.565,83.149,50.276,88.085,53.034,88.149 M68.793,140.356c-1.795,1.154-1.262,4.715,1.087,4.783  C73.776,144.856,72.859,138.667,68.793,140.356 M105.476,181.565c-3.521-0.122-4.052,5.123-0.404,5.123  C107.857,186.688,107.832,182.19,105.476,181.565 M85.929,47.646c-1.992-4.032-6.648-0.183-4.576,3.058  C83.467,54.013,87.513,50.858,85.929,47.646 M88.146,140.546c-5.105,0-4.581,6.078-0.138,6.816c1.434-0.492,2.203-0.433,2.952-1.869  C92.025,143.446,90.577,140.546,88.146,140.546 M183.6,78.411c3.082,1.688,4.713-4.353,1.82-5.15  C182.545,72.47,181.084,77.036,183.6,78.411 M78.366,56.557c-2.902,0.684-1.993,5.391,0.873,5.391  C82.753,61.95,81.285,55.867,78.366,56.557 M76.583,71.921c-4.314-0.041-5.107-7.85-0.194-7.85  C80.564,64.071,80.867,71.894,76.583,71.921"
     id="path7" /><path
     fill="#8A0066"
     d="M214.25,41.257c0,2.478,1.281,3.822,4.451,3.822c2.857,0,4.559-1.596,4.559-3.801  c0-4.347-5.482-3.087-5.482-4.956c0-0.546,0.4-0.882,0.967-0.882c0.629,0,1.008,0.294,1.008,1.26h3.275  c0-2.373-1.428-3.57-4.262-3.57c-3.066,0-4.516,1.554-4.516,3.549c0,4.305,5.48,3.108,5.48,5.124c0,0.609-0.504,0.966-1.092,0.966  c-0.336,0-0.609-0.147-0.799-0.399c-0.188-0.252-0.271-0.672-0.271-1.113H214.25z M207.383,39.115c0-2.877,0.211-3.549,1.051-3.549  c0.859,0,1.049,0.672,1.049,3.549c0,2.856-0.189,3.528-1.049,3.528C207.594,42.643,207.383,41.971,207.383,39.115 M213.264,39.115  c0-3.276-0.4-5.985-4.83-5.985c-4.264,0-4.83,2.982-4.83,5.964c0,3.276,0.398,5.985,4.83,5.985  C212.695,45.079,213.264,42.097,213.264,39.115 M192.914,44.785h3.779v-7.497c0-0.945,0.252-1.344,0.924-1.344  s0.924,0.399,0.924,1.344v7.497h3.781v-8.568c0-2.436-1.303-3.087-2.961-3.087c-1.156,0-2.268,0.462-2.857,1.743  c-0.461-1.155-1.217-1.743-2.771-1.743c-1.301,0-2.268,0.567-2.75,1.68h-0.043v-1.386h-3.654v11.361h3.781v-7.497  c0-0.945,0.252-1.344,0.924-1.344s0.924,0.399,0.924,1.344V44.785z M180.797,42.538c-0.566,0-0.924-0.483-0.924-1.239  s0.189-1.197,0.777-1.47c0.545-0.252,1.07-0.231,1.281-0.525h0.041v1.365C181.973,41.908,181.637,42.538,180.797,42.538   M185.857,44.785c-0.314-0.588-0.357-1.407-0.357-2.457v-5.544c0-2.961-1.848-3.654-4.494-3.654c-1.721,0-4.346,0.567-4.346,3.822  h3.275c0.021-1.197,0.357-1.512,1.07-1.512c0.652,0,0.967,0.357,0.967,1.05s-0.293,1.05-1.113,1.239l-1.49,0.357  c-2.416,0.567-3.15,1.554-3.15,3.654c0,1.953,0.883,3.339,3.15,3.339c1.133,0,2.143-0.567,2.562-1.575h0.041  c0.062,0.462,0.105,0.882,0.23,1.281H185.857z M168.975,44.785h3.779V38.59c0-1.491,0.777-2.016,2.121-2.016  c0.314,0,0.609,0.021,0.945,0.084V33.13h-0.609c-1.113,0-2.121,0.735-2.541,2.1h-0.043v-1.806h-3.652V44.785z M163.514,32.605h3.779  v-2.814h-3.779V32.605z M163.514,44.785h3.779V33.424h-3.779V44.785z M158.662,37.687h-2.078v-0.504  c0-1.197,0.252-1.743,1.029-1.743c0.797,0,1.049,0.546,1.049,1.743V37.687z M162.191,39.745V38.59c0-4.116-1.533-5.46-4.558-5.46  c-3.401,0-4.83,1.638-4.83,5.985c0,4.326,1.177,5.964,4.83,5.964c3.13,0,4.409-1.533,4.452-4.284h-3.402  c0,1.554-0.398,1.974-1.07,1.974c-0.525,0-1.029-0.315-1.029-1.533v-1.491H162.191z M146.861,44.785h3.78v-8.82h1.533v-2.541h-1.533  v-0.693c0-0.567,0.441-0.798,0.903-0.798c0.273,0,0.441,0.021,0.63,0.063v-2.373c-0.588-0.084-1.26-0.126-1.806-0.126  c-2.625,0-3.508,0.84-3.508,3.108v0.819h-1.302v2.541h1.302V44.785z M130.314,41.257c0,2.478,1.28,3.822,4.451,3.822  c2.855,0,4.557-1.596,4.557-3.801c0-4.347-5.48-3.087-5.48-4.956c0-0.546,0.398-0.882,0.966-0.882c0.63,0,1.009,0.294,1.009,1.26  h3.275c0-2.373-1.428-3.57-4.264-3.57c-3.065,0-4.514,1.554-4.514,3.549c0,4.305,5.48,3.108,5.48,5.124  c0,0.609-0.504,0.966-1.092,0.966c-0.336,0-0.609-0.147-0.799-0.399c-0.188-0.252-0.272-0.672-0.272-1.113H130.314z M123.447,39.115  c0-2.877,0.21-3.549,1.05-3.549c0.861,0,1.05,0.672,1.05,3.549c0,2.856-0.189,3.528-1.05,3.528  C123.657,42.643,123.447,41.971,123.447,39.115 M129.326,39.115c0-3.276-0.398-5.985-4.83-5.985c-4.263,0-4.83,2.982-4.83,5.964  c0,3.276,0.399,5.985,4.83,5.985C128.76,45.079,129.326,42.097,129.326,39.115 M122.964,32.374h2.436l2.016-3.066h-3.528  L122.964,32.374z M108.873,44.785h3.78v-7.497c0-0.945,0.252-1.344,0.924-1.344c0.672,0,0.924,0.399,0.924,1.344v7.497h3.78v-8.568  c0-2.436-1.302-3.087-2.961-3.087c-1.302,0-2.268,0.567-2.751,1.68h-0.042v-1.386h-3.654V44.785z"
     id="path11" /><text
     xml:space="preserve"
     style="font-style:normal;font-weight:normal;font-size:12.5px;line-height:125%;font-family:'Liberation Mono';letter-spacing:0px;word-spacing:0px;fill:#000000;fill-opacity:1;stroke:none;stroke-width:1px;stroke-linecap:butt;stroke-linejoin:miter;stroke-opacity:1;-inkscape-font-specification:'Liberation Mono';font-stretch:normal;font-variant:normal;"
     x="192.42101"
     y="120.53339"
     id="text4190"
     sodipodi:linespacing="125%"><tspan
       sodipodi:role="line"
       id="tspan4192"
       x="192.42101"
       y="120.53339" /></text>
<text
     xml:space="preserve"
     style="font-style:normal;font-weight:normal;font-size:17.5px;line-height:125%;font-family:Sans;letter-spacing:0px;word-spacing:0px;fill:#e23e83;fill-opacity:1;stroke:none;stroke-width:1px;stroke-linecap:butt;stroke-linejoin:miter;stroke-opacity:1;opacity:1;"
     x="188.09694"
     y="124.31694"
     id="text4198"
     sodipodi:linespacing="125%"><tspan
       sodipodi:role="line"
       id="tspan4200"
       x="188.09694"
       y="124.31694"
       style="font-style:normal;font-variant:normal;font-weight:normal;font-stretch:normal;font-family:'Arial Black';-inkscape-font-specification:'Arial Black, ';fill:#e23e83;fill-opacity:1;stroke:none;stroke-opacity:1;font-size:18.75px">3ª</tspan></text>
</svg>